<?xml version="1.0" encoding="UTF-8"?>
<svg id="Object" xmlns="http://www.w3.org/2000/svg" viewBox="0 0 204.9 177.65">
  <defs>
    <style>
      .cls-1 {
        fill: #616e7d;
      }

      .cls-2 {
        fill: #aad4c8;
      }
    </style>
  </defs>
  <path class="cls-2" d="m204.39,47.25l-.38-.57-12.79-13.32c-.75-1.13-.26-2.78,1.12-3.19,1.94-.59,3.78-1.63,5.37-3.14,5.33-5.09,5.57-13.45.48-18.53-4.85-5.32-13.21-5.45-18.54-.35-1.57,1.51-2.7,3.3-3.37,5.22-.48,1.36-2.15,1.78-3.24.98l-12.74-13.37-.55-.4c-.8-.77-2.09-.76-2.92.04l-14.78,14.18c-.92.06-1.82-.45-2.1-1.43-1.26-4.34-4.87-8.09-11-9.28-.63-.12-1.3-.13-1.93-.02-12.55,2.21-15.78,15.25-9.03,22.33,1.43,1.5,3.14,2.56,4.99,3.18.99.34,1.44,1.35,1.26,2.3l-14.86,14.26c-.86.83-.91,2.17-.11,2.99l13.44,14.01.24.19.08.08c1.14,1.19,3.13.56,3.55-1.08,1.23-4.74,5.15-8.96,11.68-10.25,1.22-.09,2.45-.01,3.65.24,2.75.75,4.93,2.06,6.56,3.72,1.58,1.7,2.8,3.94,3.42,6.72.2,1.2.23,2.43.09,3.65-1.58,6.47-5.98,10.19-10.77,11.2-1.65.35-2.38,2.31-1.23,3.5l.08.08.18.25,13.39,14.05c.79.84,2.14.85,3,.03l14.91-14.22c.96-.13,1.95.36,2.24,1.36.54,1.87,1.52,3.64,2.96,5.13,6.77,7.05,19.93,4.41,22.71-8.02.14-.63.17-1.3.07-1.93-.91-6.17-4.49-9.96-8.77-11.4-.96-.33-1.44-1.25-1.33-2.16l14.82-14.13c.84-.8.9-2.08.17-2.92Z"/>
  <path class="cls-1" d="m136.48,177.52h.11l.31.04,19.41.08c1.16,0,2.09-.96,2.1-2.14l.08-20.6c.57-.78,1.6-1.16,2.53-.67,1.73.9,3.68,1.42,5.75,1.42,9.77.01,16.99-11.31,9.95-21.93-.36-.53-.82-1.02-1.34-1.39-5.08-3.62-10.29-3.65-14.3-1.57-.9.47-1.9.16-2.48-.54l.08-20.47c0-1.15-.88-2.09-1.99-2.14l-.67-.13h-18.47c-1.33-.25-2.18-1.75-1.52-3.03.91-1.81,1.44-3.86,1.45-6.04.03-7.37-5.84-13.34-13.03-13.19-7.2-.19-13.09,5.75-13.1,13.12,0,2.18.51,4.24,1.43,6.05.65,1.29-.21,2.78-1.55,3.02l-18.47-.08-.67.12c-.79.03-1.46.53-1.79,1.23.11.32.18.67.18,1.03l-.04,21.14-1.16-.23c-.53.23-1.13.27-1.7-.03l-.36-.16c-.62,0-1.26.05-1.93.15l-.17.02-.17-.03c-.73-.13-1.38-.25-2.01-.25-5.92.01-10.83,4.58-11.57,10.53-.07.51-.11,1.03-.11,1.56,0,2.13.57,4.41,1.8,6.72.26.5.53,1,.86,1.51.29.43.66.81,1.08,1.1,2.72,1.93,5.39,2.7,7.88,2.71.66,0,1.32-.06,1.96-.16l.17-.03.17.03c.54.09.96.17,1.35.22.33-.13.66-.27.98-.44.67-.35,1.4-.24,1.96.14l.92-.19-.03,21.46c0,.27-.05.54-.11.8.34.71,1.03,1.22,1.86,1.22h19.41s.3-.03.3-.03h.12c1.65,0,2.57-1.87,1.68-3.31-2.56-4.16-2.89-9.91.71-15.52.78-.95,1.69-1.77,2.7-2.46,2.45-1.47,4.91-2.13,7.23-2.15,2.32.04,4.77.72,7.21,2.19,1,.7,1.91,1.53,2.69,2.48,3.57,5.62,3.21,11.37.62,15.52-.89,1.44.02,3.32,1.67,3.32Z"/>
  <path class="cls-1" d="m67.78,104.78l-.04.11-.02.04-.11.44c0,.47.37.94.84,1.04l18.33-.03c.26,0,.48.07.71.13h0c.64.02,1.23.25,1.72.61l.12-.58.08-20.6c.57-.78,1.6-1.15,2.53-.67,1.72.9,3.67,1.42,5.74,1.42,9.78.01,16.99-11.31,9.95-21.93-.36-.53-.82-1.02-1.34-1.39-5.08-3.62-10.29-3.65-14.3-1.57-.9.46-1.9.16-2.48-.55l.09-20.47c0-1.15-.88-2.09-1.99-2.14l-.67-.13h-18.47c-1.34-.25-2.19-1.75-1.53-3.03.92-1.81,1.45-3.86,1.46-6.04.03-7.37-5.84-13.34-13.03-13.19-7.19-.19-13.09,5.75-13.1,13.12,0,2.18.52,4.24,1.43,6.05.65,1.28-.21,2.78-1.54,3.01l-18.48-.08-.67.12c-1.11.05-2,.98-2,2.14l-.02,20.47c-.59.7-1.58,1-2.48.53-4-2.1-9.21-2.09-14.31,1.5-.52.37-.99.85-1.35,1.38-7.1,10.58.06,21.94,9.84,21.98,2.07.01,4.02-.49,5.75-1.39.94-.48,1.97-.1,2.53.69l-.02,20.6c0,.26.06.5.14.73.48-.35,1.06-.57,1.71-.6h0c.23-.05.45-.12.71-.12l18.33.03c.47-.1.85-.57.84-1.03l-.11-.45-.02-.05-.02-.05-.02-.06c-.93-1.89-1.47-4.03-1.49-6.29h0v-.06h0v-.05c0-1.43.27-2.76.63-4.01,1.68-5.84,6.9-10.17,13.19-10.17h.33s.28,0,.28,0c6.28,0,11.51,4.33,13.19,10.17.36,1.25.62,2.58.62,4.01v.03c0,2.3-.55,4.46-1.49,6.37Z"/>
  <path class="cls-1" d="m74.15,131.49c2.41-2.15,5.56-3.47,9.02-3.48v1.03s0-1.03,0-1.03c.84,0,1.58.15,2.26.26.7-.09,1.39-.15,2.09-.16.34,0,.69.02,1.03.05l.03-18.64c0-.59-.42-1.01-.91-1.07l-.07-.02h-.16s-.15-.06-.15-.06l-.31-.06-18.56.03-.09-.02c-1.45-.26-2.45-1.46-2.59-2.86l-.05-.28c0-.44.1-.89.31-1.32h0l.04-.11.02-.03c.82-1.66,1.3-3.52,1.3-5.51v-.03c0-1.17-.22-2.29-.54-3.42-1.45-5.01-5.88-8.65-11.16-8.65h-.27s-.03,0-.03,0h-.31c-2.48,0-4.76.82-6.65,2.2-2.12,1.55-3.74,3.79-4.51,6.45-.19.64-.32,1.29-.41,1.94-.07.49-.13.98-.13,1.48h0v.04c0,1.99.48,3.84,1.31,5.5l.03.05.02.05.03.06h0c.19.43.3.88.3,1.31l-.05.25c-.13,1.41-1.13,2.62-2.59,2.88l-.09.02-18.56-.03-.15.03-.16.03-.15.06h-.16c-.52.03-.98.48-.98,1.09l.04,20.85-.24.3c-.58.7-1.44,1.14-2.38,1.14-.47,0-.96-.11-1.4-.35-1.58-.82-3.35-1.28-5.24-1.28-2.5,0-5.22.81-7.96,2.76-.41.29-.8.68-1.08,1.11-1.88,2.81-2.67,5.62-2.67,8.22,0,6.69,5.25,12.08,11.67,12.09h.02c1.89,0,3.67-.46,5.25-1.28.43-.22.9-.34,1.36-.34,1.04,0,1.95.54,2.52,1.33l.2.28.03,20.94c0,.62.48,1.09,1.03,1.09l19.34-.03.31-.05h.19c.31,0,.51-.11.69-.29.17-.19.28-.47.28-.76l-.18-.64c-1.36-2.19-2.14-4.79-2.14-7.58,0-2.92.87-6.05,2.81-9.08l.04-.06.04-.04c.85-1.03,1.83-1.93,2.92-2.67l.03-.02.02-.02c2.59-1.56,5.24-2.28,7.75-2.33h.03c2.51.04,5.16.77,7.75,2.33h.03s.03.03.03.03c1.09.75,2.07,1.64,2.92,2.67l.04.05.04.05c1.94,3.03,2.81,6.15,2.81,9.08,0,2.78-.78,5.38-2.14,7.58l-.19.64c0,.29.11.57.28.76.17.18.38.29.69.29h.26s.23.05.23.05l19.34.03c.54,0,1.03-.47,1.03-1.09l.03-18.91c-.44.06-.89.1-1.36.1h0c-.8,0-1.43-.18-1.96-.27-.68.1-1.36.17-2.07.17-2.83,0-5.84-.9-8.77-2.89l-.33-.2c-.62-.45-1.17-1.01-1.61-1.66-1.11-1.66-1.87-3.34-2.36-5.02-.15-.52-.26-1.04-.36-1.56-.18-.95-.3-1.9-.3-2.82,0-4.28,1.85-8.11,4.77-10.72Z"/>
</svg>