<?xml version="1.0" encoding="utf-8"?>
<!-- Generator: Adobe Illustrator 27.6.1, SVG Export Plug-In . SVG Version: 6.00 Build 0)  -->
<svg version="1.1" xmlns="http://www.w3.org/2000/svg" xmlns:xlink="http://www.w3.org/1999/xlink" x="0px" y="0px"
	 viewBox="0 0 600.6 500" style="enable-background:new 0 0 600.6 500;" xml:space="preserve">
<style type="text/css">
	.st0{fill:#13184C;}
	.st1{fill:#FFFFFF;}
	.st2{fill:#CECECE;}
	.st3{fill:none;stroke:#13184C;stroke-linecap:round;stroke-linejoin:round;stroke-miterlimit:10;}
	.st4{fill:#F26527;}
	.st5{font-family:'MyriadPro-Regular';}
	.st6{font-size:41.6642px;}
	.st7{clip-path:url(#SVGID_00000137845433407672261660000000462973881786876854_);}
	.st8{fill:#B2B2B2;}
	.st9{fill:#E58955;}
	.st10{fill:#DD569B;}
	.st11{fill:#9DDDF2;}
	.st12{fill:#EBB556;}
	.st13{fill:#6FC4F0;}
	.st14{fill:#DD4A1F;}
	.st15{fill:#CC779B;}
	.st16{fill:#DD8E9B;}
	.st17{fill:#EBCEC3;}
	.st18{fill:none;stroke:#13184C;stroke-width:2;stroke-linecap:round;stroke-linejoin:round;stroke-miterlimit:10;}
	.st19{fill:#8CCAF2;}
	.st20{fill:none;stroke:#FFFFFF;stroke-width:2;stroke-linecap:round;stroke-linejoin:round;stroke-miterlimit:10;}
</style>
<g id="BACKGROUND">
</g>
<g id="OBJECTS">
	<g>
		
			<rect x="184.7" y="61.2" transform="matrix(0.9999 -1.262482e-02 1.262482e-02 0.9999 -3.3181 4.4522)" class="st0" width="332.6" height="407.7"/>
		
			<rect x="190.9" y="59.5" transform="matrix(0.9999 -1.262513e-02 1.262513e-02 0.9999 -3.2771 4.5313)" class="st1" width="332.6" height="404.5"/>
		<g>
			<g>
				<path class="st2" d="M217.3,73.3c0,2.3-1.4,4.1-3.1,4.1c-1.7,0-3.2-1.8-3.2-4c0-2.3,1.4-4.1,3.1-4.1
					C215.8,69.2,217.2,71,217.3,73.3z"/>
				<path class="st0" d="M210.9,47.7c-5.8,0.1-10.6,6.1-10.9,13.5l4.7-0.1c0.3-4.8,3-8.8,6.3-8.8c3.5,0,6.5,4.4,6.5,9.7
					c0,3.9-1.5,7.4-3.8,9c-0.6,0.4-1,1.1-1,1.8l0,0.2c0,1.8,2.1,2.9,3.5,1.9c3.6-2.4,6-7.3,5.9-12.9
					C222.1,54.1,217.1,47.6,210.9,47.7z"/>
			</g>
			<g>
				<path class="st2" d="M248.9,72.9c0,2.3-1.4,4.1-3.1,4.1c-1.7,0-3.2-1.8-3.2-4c0-2.3,1.4-4.1,3.1-4.1
					C247.4,68.8,248.8,70.6,248.9,72.9z"/>
				<path class="st0" d="M242.5,47.3c-5.8,0.1-10.6,6.1-10.9,13.5l4.7-0.1c0.3-4.8,3-8.8,6.3-8.8c3.5,0,6.5,4.4,6.5,9.7
					c0,3.9-1.5,7.4-3.8,9c-0.6,0.4-1,1.1-1,1.8l0,0.2c0,1.8,2.1,2.9,3.5,1.9c3.6-2.4,6-7.3,5.9-12.9
					C253.7,53.7,248.7,47.2,242.5,47.3z"/>
			</g>
			<g>
				<path class="st2" d="M280.5,72.5c0,2.3-1.4,4.1-3.1,4.1c-1.7,0-3.2-1.8-3.2-4c0-2.3,1.4-4.1,3.1-4.1
					C279,68.4,280.4,70.2,280.5,72.5z"/>
				<path class="st0" d="M274.1,46.9c-5.8,0.1-10.6,6.1-10.9,13.5l4.7-0.1c0.3-4.8,3-8.8,6.3-8.8c3.5,0,6.5,4.4,6.5,9.7
					c0,3.9-1.5,7.4-3.8,9c-0.6,0.4-1,1.1-1,1.8l0,0.2c0,1.8,2.1,2.9,3.5,1.9c3.6-2.4,6-7.3,5.9-12.9
					C285.3,53.3,280.3,46.8,274.1,46.9z"/>
			</g>
			<g>
				<path class="st2" d="M312.1,72.1c0,2.3-1.4,4.1-3.1,4.1c-1.7,0-3.2-1.8-3.2-4c0-2.3,1.4-4.1,3.1-4.1
					C310.6,68,312,69.8,312.1,72.1z"/>
				<path class="st0" d="M305.8,46.5c-5.8,0.1-10.6,6.1-10.9,13.5l4.7-0.1c0.3-4.8,3-8.8,6.3-8.8c3.5,0,6.5,4.4,6.5,9.7
					c0,3.9-1.5,7.4-3.8,9c-0.6,0.4-1,1.1-1,1.8l0,0.2c0,1.8,2.1,2.9,3.5,1.9c3.6-2.4,6-7.3,5.9-12.9
					C316.9,52.9,311.9,46.4,305.8,46.5z"/>
			</g>
			<g>
				<path class="st2" d="M343.7,71.7c0,2.3-1.4,4.1-3.1,4.1c-1.7,0-3.2-1.8-3.2-4c0-2.3,1.4-4.1,3.1-4.1
					C342.2,67.6,343.6,69.4,343.7,71.7z"/>
				<path class="st0" d="M337.4,46.1c-5.8,0.1-10.6,6.1-10.9,13.5l4.7-0.1c0.3-4.8,3-8.8,6.3-8.8c3.5,0,6.5,4.4,6.5,9.7
					c0,3.9-1.5,7.4-3.8,9c-0.6,0.4-1,1.1-1,1.8l0,0.2c0,1.8,2.1,2.9,3.5,1.9c3.6-2.4,6-7.3,5.9-12.9C348.5,52.5,343.5,46,337.4,46.1
					z"/>
			</g>
			<g>
				<path class="st2" d="M375.3,71.3c0,2.3-1.4,4.1-3.1,4.1c-1.7,0-3.2-1.8-3.2-4c0-2.3,1.4-4.1,3.1-4.1
					C373.8,67.2,375.2,69,375.3,71.3z"/>
				<path class="st0" d="M369,45.7c-5.8,0.1-10.6,6.1-10.9,13.5l4.7-0.1c0.3-4.8,3-8.8,6.3-8.8c3.5,0,6.5,4.4,6.5,9.7
					c0,3.9-1.5,7.4-3.8,9c-0.6,0.4-1,1.1-1,1.8l0,0.2c0,1.8,2.1,2.9,3.5,1.9c3.6-2.4,6-7.3,5.9-12.9C380.1,52.1,375.1,45.6,369,45.7
					z"/>
			</g>
			<g>
				<path class="st2" d="M406.9,70.9c0,2.3-1.4,4.1-3.1,4.1c-1.7,0-3.2-1.8-3.2-4c0-2.3,1.4-4.1,3.1-4.1
					C405.4,66.8,406.8,68.6,406.9,70.9z"/>
				<path class="st0" d="M400.6,45.3c-5.8,0.1-10.6,6.1-10.9,13.5l4.7-0.1c0.3-4.8,3-8.8,6.3-8.8c3.5,0,6.5,4.4,6.5,9.7
					c0,3.9-1.5,7.4-3.8,9c-0.6,0.4-1,1.1-1,1.8l0,0.2c0,1.8,2.1,2.9,3.5,1.9c3.6-2.4,6-7.3,5.9-12.9
					C411.7,51.7,406.7,45.2,400.6,45.3z"/>
			</g>
			<g>
				<path class="st2" d="M438.5,70.5c0,2.3-1.4,4.1-3.1,4.1c-1.7,0-3.2-1.8-3.2-4c0-2.3,1.4-4.1,3.1-4.1
					C437,66.4,438.4,68.2,438.5,70.5z"/>
				<path class="st0" d="M432.2,44.9c-5.8,0.1-10.6,6.1-10.9,13.5l4.7-0.1c0.3-4.8,3-8.8,6.3-8.8c3.5,0,6.5,4.4,6.5,9.7
					c0,3.9-1.5,7.4-3.8,9c-0.6,0.4-1,1.1-1,1.8l0,0.2c0,1.8,2.1,2.9,3.5,1.9c3.6-2.4,6-7.3,5.9-12.9
					C443.3,51.3,438.3,44.8,432.2,44.9z"/>
			</g>
			<g>
				<path class="st2" d="M470.1,70.1c0,2.3-1.4,4.1-3.1,4.1c-1.7,0-3.2-1.8-3.2-4c0-2.3,1.4-4.1,3.1-4.1
					C468.6,66,470,67.8,470.1,70.1z"/>
				<path class="st0" d="M463.8,44.5c-5.8,0.1-10.6,6.1-10.9,13.5l4.7-0.1c0.3-4.8,3-8.8,6.3-8.8c3.5,0,6.5,4.4,6.5,9.7
					c0,3.9-1.5,7.4-3.8,9c-0.6,0.4-1,1.1-1,1.8l0,0.2c0,1.8,2.1,2.9,3.5,1.9c3.6-2.4,6-7.3,5.9-12.9
					C474.9,50.9,469.9,44.4,463.8,44.5z"/>
			</g>
			<g>
				<path class="st2" d="M501.7,69.7c0,2.3-1.4,4.1-3.1,4.1c-1.7,0-3.2-1.8-3.2-4c0-2.3,1.4-4.1,3.1-4.1
					C500.2,65.6,501.7,67.4,501.7,69.7z"/>
				<path class="st0" d="M495.4,44.1c-5.8,0.1-10.6,6.1-10.9,13.5l4.7-0.1c0.3-4.8,3-8.8,6.3-8.8c3.5,0,6.5,4.4,6.5,9.7
					c0,3.9-1.5,7.4-3.8,9c-0.6,0.4-1,1.1-1,1.8l0,0.2c0,1.8,2.1,2.9,3.5,1.9c3.6-2.4,6-7.3,5.9-12.9C506.5,50.5,501.5,44,495.4,44.1
					z"/>
			</g>
		</g>
		<g>
			<line class="st3" x1="213.1" y1="203.6" x2="494.4" y2="200"/>
			<line class="st3" x1="213.6" y1="245.5" x2="494.9" y2="241.9"/>
			<line class="st3" x1="214.2" y1="287.3" x2="495.4" y2="283.8"/>
			<line class="st3" x1="214.7" y1="329.2" x2="496" y2="325.7"/>
			<line class="st3" x1="215.2" y1="371.1" x2="496.5" y2="367.5"/>
			<line class="st3" x1="215.7" y1="413" x2="497" y2="409.4"/>
		</g>
		<text transform="matrix(1 0 0 1 222.9954 151.5901)" class="st4 st5 st6">Dispute</text>
	</g>
	<g>
		<defs>
			<rect id="SVGID_1_" width="600.6" height="500"/>
		</defs>
		<clipPath id="SVGID_00000021808595630878311180000003393815196546277820_">
			<use xlink:href="#SVGID_1_"  style="overflow:visible;"/>
		</clipPath>
		<g style="clip-path:url(#SVGID_00000021808595630878311180000003393815196546277820_);">
			<g>
				<path class="st8" d="M108.1,149.7c19.7,6.1,36.9,13.8,50.7,23.7l9.3-19.4l-46.5-22.8L108.1,149.7z"/>
				<path class="st9" d="M120,120.1l-11,17.7c0,0,11.8,13.5,27,20.3s34.6,5.9,34.6,5.9l7.6-21.1c0,0-24.5,0-32.9-0.8
					C136.9,141.2,120,120.1,120,120.1z"/>
			</g>
			<g>
				<path class="st8" d="M573.3,168.8c19.7,6.1,36.9,13.8,50.7,23.7l9.3-19.4l-46.5-22.8L573.3,168.8z"/>
				<path class="st9" d="M585.1,139.3l-11,17.7c0,0,11.8,13.5,27,20.3c15.2,6.8,34.6,5.9,34.6,5.9l7.6-21.1c0,0-24.5,0-32.9-0.8
					C602,160.4,585.1,139.3,585.1,139.3z"/>
			</g>
			<g>
				<polygon class="st8" points="213.2,437.4 226.7,489.8 248.6,488.1 233.4,433.2 				"/>
				<path class="st10" d="M214.9,434.9c0,0,16,22,13.5,52.4l22.8,0.8c0,0,0.8-37.2-14.4-56.6L214.9,434.9z"/>
			</g>
			<g>
				<polygon class="st8" points="329.8,0.1 365.3,40.9 384.2,29.6 346.1,-12.7 				"/>
				<path class="st11" d="M330.2-2.9c0,0,24.2,12.5,35.4,40.9l20.8-9.4c0,0-15.8-33.6-38.1-44.3L330.2-2.9z"/>
			</g>
			<g>
				<path class="st8" d="M119.4,232.4l22.2,6.6c0,0-15.9,28.2-19.2,35c-3.2,6.8-10.1,19.7-10.1,19.7L95,286.4L119.4,232.4z"/>
				<g>
					<path class="st12" d="M115.8,227.6c0,0-2.7,26.2-22.8,49.2l20.1,11.5c0,0,22.7-29.4,22-54.1L115.8,227.6z"/>
				</g>
			</g>
			<g>
				<path class="st8" d="M131,44.1l-19.4,16l28.7,14.4c0,0,16.9-27,27-40.5c10.1-13.5,33.8-37.2,33.8-37.2l-26.2-2.5L131,44.1z"/>
				<path class="st13" d="M171.5-13.4c0,0-22.8,38.9-33.8,49.8c-11,11-31.3,9.3-31.3,9.3l26.2,19.4c0,0,13.5-7.6,26.2-19.4
					C171.5,34,194.3-6.6,194.3-6.6L171.5-13.4z"/>
			</g>
			<g>
				<polygon class="st8" points="555.3,38.7 543.4,43 554.4,60.4 595.5,46.3 589.9,27.8 				"/>
				<path class="st14" d="M544.3,37c0,0,33.8-7.6,42.2-12.7l7.6,22c0,0-27,10.1-36.3,10.1L544.3,37z"/>
			</g>
			<g>
				<polygon class="st8" points="434.8,473.5 422.9,477.7 433.9,495.1 475,481.1 469.4,462.5 				"/>
				<path class="st14" d="M423.8,471.8c0,0,33.8-7.6,42.2-12.7l7.6,22c0,0-27,10.1-36.3,10.1L423.8,471.8z"/>
			</g>
		</g>
		<g style="clip-path:url(#SVGID_00000021808595630878311180000003393815196546277820_);">
			<g>
				<path class="st15" d="M458.9,131l-28.4,15l-5.5,31.6l19.2,19.8c3.3,3.4,8.1,4.7,12.7,3.5h0c8.2-2.2,12.2-11.6,7.9-19l-3.4-5.9
					l43.5,20.5l16.6-13.4l-50.6-55.3L458.9,131z"/>
				<path class="st16" d="M523.7,116.8l-43.1-6.6c-8.3-2.3-17.1-0.8-24.2,4.1l-39.4,27.4c-5.4,3.8-4.9,11.9,1,14.9l0,0
					c8.3,4.3,18.1,4.5,26.6,0.5l35.6-16.6L523.7,116.8z"/>
				<g>
					<g>
						<g>
							<path class="st12" d="M546.9,120.3c-3.6-6.9-6.3-13.5-8.1-18.7l-112.3,54.7l-18,27.4l27.5-10.8L546.9,120.3z"/>
							<path class="st14" d="M410.3,188.5l34.5-1.4l110.4-53.4c-3.2-4.4-5.9-9-8.2-13.4L436,172.9l-27.5,10.8l-0.5,0.8
								C406.8,186.2,408.2,188.6,410.3,188.5z"/>
						</g>
						<path class="st0" d="M575.5,103.8c-4.4-8.9-15.1-12.6-24.1-8.3l-12.6,6.1c2.9,8.5,8.1,20.6,16.2,32.1l12.1-5.9
							C576.2,123.5,579.9,112.7,575.5,103.8z"/>
					</g>
					<g>
						<path class="st17" d="M410.3,188.5l34.5-1.4l2.5-1.2c-2.2-10.6-11.2-13-11.2-13c0-14.2-9.5-16.6-9.5-16.6L408,184.5
							C406.8,186.2,408.2,188.6,410.3,188.5z"/>
						<path class="st0" d="M413.1,176.7l-5.1,7.8c-1.2,1.8,0.2,4.1,2.3,4l9.3-0.4C418.3,182.3,415.8,178.8,413.1,176.7z"/>
					</g>
				</g>
				<path class="st16" d="M639.1,425.7l-49-173l-8.2-54c-1.4-9.1-5.2-17.7-11-24.9l-24.3-35.6l-52.1,24.8l12.1,18.4l-45-12.5
					c-4.5-2.3-10-1.6-13.8,1.7c-6,5.3-5.6,14.8,0.9,19.4l21.2,14.6c0,0-2.4,36.3,3.2,44.2c5.5,7.9,22.9,29.2,22.9,29.2l36.3,230.7
					l113.8-4L639.1,425.7z"/>
				<path class="st18" d="M461.7,168.8l45,12.5c0,0,14.7,3.4,17.9-5.3"/>
			</g>
			<path class="st15" d="M496.1,278c11.7,1.6,22.5-0.1,32.4-4.7l-15.8,109L496.1,278z"/>
		</g>
		<g style="clip-path:url(#SVGID_00000021808595630878311180000003393815196546277820_);">
			
				<ellipse transform="matrix(0.7071 -0.7071 0.7071 0.7071 -260.2075 204.2204)" class="st8" cx="116.4" cy="416.2" rx="66.9" ry="66.9"/>
			<path class="st11" d="M151.3,356.5l-16.2-14c-0.1-0.1-0.1-0.1-0.2-0.2c0,0-20.6-16.5-42.8-15.3c-37.1,1.9-67.2,30.1-67.2,67.2
				c0,20.9,9.5,39.5,24.4,51.9l-0.2,0.2l19.8,14c29.1,22.3,70.8,16.7,93-12.5v0C183.5,419.4,178.8,379.1,151.3,356.5z"/>
			
				<ellipse transform="matrix(0.7071 -0.7071 0.7071 0.7071 -251.7864 180.6145)" class="st0" cx="92.1" cy="394.2" rx="58.8" ry="58.8"/>
			<g>
				<path class="st11" d="M154.5,362.1c0,0,6.9-6.3,6.9-14.8c0-8.6-4-19.1-11.1-20.3l13.4-3.1l5.4,11.1l1.1,12.8l-2.3,13.4l-8,7.7
					L154.5,362.1z"/>
				<path class="st19" d="M137.7,346.4c0,0,9.4-20.6,21.4-18.3c12,2.3,12.3,26.8,0.9,37.7l2.3,3.7c0,0,8-6.3,10.8-20
					c3.3-15.9-1.1-30.8-12-32.3c-11.9-1.6-22.8,7.4-22.8,7.4l-9.4,15.1L137.7,346.4z"/>
				<path class="st11" d="M114.3,333.3c0,0,9.7-18.5,24.9-23c3.4-1,7.1-0.7,10.4,0.8l15.5,7.1c0,0-22.3,1.4-33.7,26L114.3,333.3z"/>
			</g>
			<path class="st20" d="M119.2,332.5c0,0,19.8,9.9,30.4,28.2c0,0,24,42.2-4,74.8c-28,32.5-63.4,25.1-63.4,25.1"/>
		</g>
	</g>
</g>
</svg>
